<svg xmlns="http://www.w3.org/2000/svg" width="1200" height="630" viewBox="0 0 1200 630" role="img" aria-labelledby="title description">
  <title id="title">trusin — Webhooks, delivered with certainty.</title>
  <desc id="description">Open-source webhook delivery infrastructure.</desc>
  <defs>
    <linearGradient id="background" x1="0" x2="1" y1="0" y2="1"><stop stop-color="#07110b"/><stop offset="1" stop-color="#0c2114"/></linearGradient>
    <radialGradient id="glow"><stop stop-color="#55df87" stop-opacity=".55"/><stop offset="1" stop-color="#55df87" stop-opacity="0"/></radialGradient>
  </defs>
  <rect width="1200" height="630" fill="url(#background)"/>
  <circle cx="940" cy="210" r="390" fill="url(#glow)"/>
  <path d="M0 93H1200M0 183H1200M0 273H1200M0 363H1200M0 453H1200M0 543H1200M120 0V630M300 0V630M480 0V630M660 0V630M840 0V630M1020 0V630" stroke="#72a486" stroke-opacity=".12"/>
  <image href="https://trusin.my.id/icon-trusin.png" x="110" y="104" width="76" height="76"/>
  <text x="205" y="159" fill="#f4f7f5" font-family="Arial, sans-serif" font-size="50" font-weight="700">trusin</text>
  <text x="110" y="289" fill="#f4f7f5" font-family="Arial, sans-serif" font-size="67" font-weight="700">Webhooks, delivered</text>
  <text x="110" y="365" fill="#62e391" font-family="Arial, sans-serif" font-size="67" font-weight="700">with certainty.</text>
  <text x="112" y="455" fill="#b8c7bd" font-family="Arial, sans-serif" font-size="28">Durable queues · Retries · Routing · Delivery timelines</text>
  <rect x="110" y="505" width="314" height="48" rx="24" fill="#1b5131"/><text x="137" y="537" fill="#7af0a7" font-family="Arial, sans-serif" font-size="20" font-weight="700">OPEN-SOURCE WEBHOOK INFRA</text>
</svg>
